<svg xmlns="http://www.w3.org/2000/svg" viewBox="0 0 32 32" shape-rendering="geometricPrecision"><rect width="32" height="32" fill="#0f1117"/><path d="M7.36 22.671V23.854H1.6V22.671Z" fill="#3fb950"/><path d="M11.72 17.57Q10.699 17.57 10.294 17.831Q9.889 18.093 9.889 18.728Q9.889 19.202 10.169 19.482Q10.449 19.762 10.929 19.762Q11.652 19.762 12.05 19.217Q12.449 18.672 12.449 17.694V17.57ZM14.261 16.866V20.846H12.449V20.067Q12.119 20.528 11.602 20.777Q11.085 21.027 10.462 21.027Q9.272 21.027 8.609 20.397Q7.945 19.768 7.945 18.641Q7.945 17.42 8.737 16.838Q9.528 16.255 11.184 16.255H12.449V15.95Q12.449 15.508 12.128 15.281Q11.807 15.053 11.184 15.053Q10.53 15.053 9.917 15.218Q9.303 15.383 8.637 15.745V14.187Q9.241 13.938 9.864 13.82Q10.487 13.702 11.184 13.702Q12.885 13.702 13.573 14.393Q14.261 15.084 14.261 16.866Z" fill="#3fb950"/><path d="M20.334 17.377Q20.334 16.367 19.998 15.794Q19.662 15.221 19.07 15.221Q18.478 15.221 18.136 15.794Q17.793 16.367 17.793 17.377Q17.793 18.386 18.136 18.959Q18.478 19.532 19.07 19.532Q19.662 19.532 19.998 18.959Q20.334 18.386 20.334 17.377ZM17.793 14.86Q18.129 14.281 18.575 13.991Q19.02 13.702 19.581 13.702Q20.82 13.702 21.49 14.648Q22.159 15.595 22.159 17.364Q22.159 19.108 21.499 20.067Q20.839 21.027 19.643 21.027Q19.014 21.027 18.547 20.721Q18.08 20.416 17.793 19.812V20.846H15.974V11.154H17.793Z" fill="#3fb950"/><path d="M24.097 13.87H27.709V19.444H29.976V20.846H23.611V19.444H25.884V15.271H24.097ZM25.884 10.475H27.709V12.605H25.884Z" fill="#3fb950"/></svg>